<svg id="Camada_1" data-name="Camada 1" xmlns="http://www.w3.org/2000/svg" viewBox="0 0 132.33 107.13"><defs><style>.cls-1{fill:#0a436d;}</style></defs><path class="cls-1" d="M44.11,68.9a4.67,4.67,0,0,0,4.67-4.67V9.34h28a4.67,4.67,0,1,0,0-9.34H47a4.58,4.58,0,0,0-1.44.25,4.62,4.62,0,0,0-6.12,4.42V64.23A4.68,4.68,0,0,0,44.11,68.9Z"/><path class="cls-1" d="M47.8,91.09l-10,5.35L11.17,46.74,33.23,34.89a4.68,4.68,0,1,0-4.43-8.25L3.63,40.16a5,5,0,0,0-1.09.41h0A4.7,4.7,0,0,0,.26,43.42a4.65,4.65,0,0,0,.3,3.71,4.87,4.87,0,0,0,.71,1l30.39,56.58h0a4.67,4.67,0,0,0,6.34,1.9,4.94,4.94,0,0,0,.75-.51,4.69,4.69,0,0,0,2-.54l11.51-6.19a4.68,4.68,0,1,0-4.43-8.24Z"/><path class="cls-1" d="M130.23,31.86a4,4,0,0,0-1-.36L108.61,20.44h0L91.35,11.16a4.39,4.39,0,0,0-.9-.69,4,4,0,0,0-5.36,1.58,4.39,4.39,0,0,0-.66.92h0a4.48,4.48,0,0,0-.4,1L52.91,71.89a5.07,5.07,0,0,0-.65.92,4.44,4.44,0,0,0-.41,1.08,4,4,0,0,0,1.66,5.31,4,4,0,0,0,1,.36L75.12,90.62h0l17.19,9.24a3.71,3.71,0,0,0,1,.77A4,4,0,0,0,98.69,99l0,0a4.55,4.55,0,0,0,.58-.85,4.84,4.84,0,0,0,.39-1l31.16-58a4.34,4.34,0,0,0,.62-.88,4.62,4.62,0,0,0,.4-1A4,4,0,0,0,130.23,31.86ZM94.47,90l-18-9.69h0L61.71,72.36,89.27,21.1l18,9.68h0L122,38.71Z"/></svg>